<svg width="94" height="32" viewBox="0 0 94 32" fill="none" xmlns="http://www.w3.org/2000/svg">
<path d="M90.8347 31.5151C90.3571 31.5151 89.9335 31.4458 89.5638 31.3072C89.1941 31.1608 88.8821 30.9567 88.6279 30.6948C88.3737 30.4252 88.1812 30.1056 88.0502 29.7359C87.927 29.3584 87.8654 28.9348 87.8654 28.4649C87.8654 27.9951 87.927 27.5638 88.0502 27.1709C88.1812 26.7704 88.366 26.4238 88.6048 26.1311C88.8513 25.8384 89.1517 25.6112 89.506 25.4494C89.868 25.2877 90.2801 25.2068 90.7423 25.2068C91.1582 25.2068 91.5318 25.2761 91.863 25.4148C92.2019 25.5534 92.4869 25.7652 92.718 26.0502C92.949 26.3275 93.1185 26.678 93.2263 27.1016C93.3419 27.5175 93.3881 28.0028 93.365 28.5574L88.6626 28.592V27.8064L92.6024 27.7717L92.1865 28.2454C92.225 27.7987 92.1826 27.4251 92.0594 27.1247C91.9438 26.8243 91.7705 26.6009 91.5395 26.4546C91.3084 26.3082 91.0427 26.2351 90.7423 26.2351C90.4033 26.2351 90.1068 26.3237 89.8526 26.5008C89.6061 26.6703 89.4136 26.9206 89.2749 27.2518C89.144 27.583 89.0785 27.9797 89.0785 28.4418C89.0785 29.1351 89.2287 29.6588 89.5291 30.0132C89.8372 30.3598 90.2763 30.5331 90.8462 30.5331C91.085 30.5331 91.2891 30.5061 91.4586 30.4522C91.6357 30.3906 91.7821 30.3097 91.8976 30.2096C92.0132 30.1017 92.1056 29.9823 92.1749 29.8514C92.2442 29.7128 92.2982 29.5703 92.3367 29.4239L93.4458 29.6665C93.3765 29.9438 93.2725 30.198 93.1339 30.4291C93.0029 30.6525 92.8296 30.845 92.614 31.0068C92.3983 31.1685 92.1441 31.2918 91.8514 31.3765C91.5587 31.4689 91.2198 31.5151 90.8347 31.5151Z" fill="white"/>
<path d="M83.5738 31.365V28.2455V25.357H84.6714L84.6021 27.4829H84.7985C84.8678 26.9977 84.9756 26.5856 85.122 26.2467C85.2683 25.9078 85.4647 25.6536 85.7112 25.4841C85.9654 25.307 86.2735 25.2184 86.6355 25.2184C86.7202 25.2184 86.8088 25.2261 86.9013 25.2415C87.0014 25.2492 87.1131 25.2723 87.2363 25.3108L87.167 26.6279C87.0515 26.5817 86.9321 26.5471 86.8088 26.524C86.6856 26.5009 86.5701 26.4893 86.4622 26.4893C86.1618 26.4893 85.9038 26.5779 85.6881 26.755C85.4724 26.9322 85.2953 27.1787 85.1566 27.4945C85.018 27.8103 84.9102 28.1723 84.8331 28.5805V31.365H83.5738Z" fill="white"/>
<path d="M79.2918 31.5151C78.7064 31.5151 78.1904 31.3919 77.7436 31.1454C77.3046 30.8989 76.958 30.5408 76.7038 30.0709C76.4573 29.6011 76.3341 29.0234 76.3341 28.3379C76.3341 27.6369 76.4612 27.0554 76.7153 26.5932C76.9772 26.1311 77.3277 25.7845 77.7667 25.5534C78.2135 25.3223 78.7142 25.2068 79.2687 25.2068C79.8387 25.2068 80.3471 25.3262 80.7938 25.565C81.2406 25.8037 81.591 26.158 81.8452 26.6279C82.0994 27.0978 82.2265 27.6831 82.2265 28.3841C82.2265 29.0773 82.0994 29.6588 81.8452 30.1287C81.591 30.5908 81.2406 30.9375 80.7938 31.1685C80.3471 31.3996 79.8464 31.5151 79.2918 31.5151ZM79.3265 30.5215C79.5268 30.5215 79.7232 30.4869 79.9157 30.4175C80.1083 30.3482 80.2816 30.2365 80.4357 30.0825C80.5974 29.9207 80.7245 29.7051 80.8169 29.4355C80.9171 29.1659 80.9671 28.8308 80.9671 28.4303C80.9671 28.0221 80.9171 27.6793 80.8169 27.402C80.7168 27.117 80.582 26.8898 80.4126 26.7203C80.2508 26.5432 80.0659 26.4199 79.858 26.3506C79.65 26.2736 79.442 26.2351 79.2341 26.2351C79.0415 26.2351 78.8489 26.2697 78.6564 26.3391C78.4638 26.4084 78.2867 26.5201 78.1249 26.6741C77.9709 26.8282 77.8438 27.04 77.7436 27.3096C77.6435 27.5792 77.5934 27.9142 77.5934 28.3147C77.5934 28.723 77.6435 29.0696 77.7436 29.3546C77.8438 29.6319 77.9747 29.8591 78.1365 30.0363C78.3059 30.2057 78.4908 30.329 78.691 30.406C78.899 30.483 79.1108 30.5215 79.3265 30.5215Z" fill="white"/>
<path d="M72.3365 31.5147C71.7743 31.5147 71.2698 31.43 70.823 31.2606C70.3763 31.0911 69.9988 30.8408 69.6907 30.5096C69.3826 30.1784 69.1477 29.774 68.986 29.2964C68.8319 28.8112 68.7549 28.2566 68.7549 27.6327C68.7549 27.0088 68.8358 26.4465 68.9975 25.9458C69.167 25.4452 69.4057 25.0215 69.7138 24.6749C70.0219 24.3206 70.3878 24.051 70.8115 23.8662C71.2428 23.6813 71.7242 23.5889 72.2557 23.5889C72.6716 23.5889 73.0529 23.6466 73.3995 23.7622C73.7538 23.87 74.0542 24.0318 74.3007 24.2474C74.5549 24.4631 74.7513 24.7211 74.8899 25.0215C75.0363 25.3219 75.1095 25.6608 75.1095 26.0383L73.931 26.3387C73.9387 25.9612 73.8616 25.6493 73.6999 25.4028C73.5458 25.1563 73.3379 24.9715 73.076 24.8482C72.8141 24.725 72.5291 24.6634 72.221 24.6634C71.9437 24.6634 71.6741 24.7173 71.4122 24.8251C71.1581 24.933 70.927 25.1063 70.719 25.345C70.5188 25.5761 70.357 25.8765 70.2338 26.2462C70.1182 26.616 70.0605 27.0588 70.0605 27.5749C70.0605 28.245 70.1567 28.7919 70.3493 29.2155C70.5419 29.6315 70.8115 29.9396 71.1581 30.1398C71.5124 30.3401 71.9168 30.4402 72.3712 30.4402C72.8257 30.4402 73.1877 30.3517 73.4573 30.1745C73.7269 29.9974 73.9233 29.7586 74.0465 29.4582C74.1774 29.1578 74.2506 28.815 74.266 28.4299L75.3867 28.6148C75.3867 29.0153 75.329 29.3927 75.2134 29.747C75.0979 30.1013 74.9169 30.4133 74.6704 30.6829C74.4316 30.9448 74.1158 31.1489 73.723 31.2952C73.3379 31.4416 72.8757 31.5147 72.3365 31.5147Z" fill="white"/>
<path d="M73.2716 11.3153V8.32425L70.6908 6.82874L68.1115 8.32425V11.3153L70.6908 12.8108L73.2716 11.3153Z" fill="white"/>
<path d="M62.7606 5.41553V14.2826L65.6047 12.6347V7.0635L62.7606 5.41553Z" fill="white"/>
<path d="M78.7352 14.288L78.6877 5.36472L75.8827 7.08256V12.6046L78.7352 14.288Z" fill="white"/>
<path d="M70.5807 0.687988L62.9295 5.12081L65.7735 6.76878L70.5807 3.98393V0.687988Z" fill="white"/>
<path d="M70.5807 15.7137L65.7735 12.9288L62.9295 14.5768L70.5807 19.0111V15.7137Z" fill="white"/>
<path d="M75.6674 12.9648L70.9196 15.7148V19.0122L78.5014 14.6346L75.6674 12.9648Z" fill="white"/>
<path d="M78.3071 4.9826L70.9196 0.687988V3.98393L75.6923 6.79588L76.9759 5.88924L78.3071 4.9826Z" fill="white"/>
<path d="M50.096 5.0506V3.64341L48.8291 2.93982L47.563 3.64341V5.0506L48.8291 5.7542L50.096 5.0506Z" fill="white"/>
<path d="M49.8146 4.90982V3.78407L48.8293 3.22119L47.8445 3.78407V4.90982L48.8293 5.47269L49.8146 4.90982Z" fill="white"/>
<path d="M93.9897 4.44371L93.9996 8.36349L87.5442 4.55826V0.698242L93.9897 4.44371Z" fill="white"/>
<path d="M87.5198 4.55797L84.4849 6.32611L81.0891 4.43843L87.5445 0.687988L87.5198 4.55797Z" fill="white"/>
<path d="M81.0892 4.43823L94 11.6104V15.2463L81.0942 8.12891L81.0892 4.43823Z" fill="white"/>
<path d="M93.9999 15.2459L90.5152 13.3234L87.5248 15.1513L87.5446 19.0113L93.9999 15.2459Z" fill="white"/>
<path d="M87.5249 15.1516L87.5447 19.0116L81.0893 15.2711L81.0794 11.4559L87.5249 15.1516Z" fill="white"/>
<path d="M12.6546 4.43753L12.6643 8.35084L6.33681 4.55189V0.698242L12.6546 4.43753Z" fill="white"/>
<path d="M6.31277 4.55158L3.33797 6.3168L0.00948334 4.43224L6.337 0.687988L6.31277 4.55158Z" fill="white"/>
<path d="M0.00967407 4.43213L12.6647 11.5925V15.2223L0.014509 8.11671L0.00967407 4.43213Z" fill="white"/>
<path d="M12.6646 15.2222L9.24891 13.3029L6.31771 15.1277L6.33709 18.9814L12.6646 15.2222Z" fill="white"/>
<path d="M6.31784 15.1277L6.33722 18.9813L0.00969939 15.247L0 11.4381L6.31784 15.1277Z" fill="white"/>
<path d="M17.7634 15.7957C17.0298 15.7957 16.4047 15.649 15.8879 15.3555C15.3712 15.0557 14.9757 14.6028 14.7014 13.9967C14.4335 13.3907 14.2995 12.6188 14.2995 11.6811V6.2268H16.0219V11.2026C16.0219 12.1978 16.1909 12.9569 16.529 13.48C16.8735 14.0031 17.4317 14.2647 18.2036 14.2647C18.7331 14.2647 19.2243 14.1371 19.6772 13.8819C20.1301 13.6267 20.4427 13.2185 20.615 12.6571L20.3662 13.5948V6.2268H22.0886V15.6043H20.5575L20.2131 13.7671L20.6724 14.0733C20.3598 14.6538 19.977 15.0876 19.5241 15.3747C19.0776 15.6553 18.4907 15.7957 17.7634 15.7957Z" fill="white"/>
<path d="M27.0914 15.7957C26.2621 15.7957 25.5732 15.6968 25.0246 15.499C24.4823 15.3013 24.0996 15.1259 23.8763 14.9728L24.0868 13.3078C24.291 13.4864 24.6514 13.6905 25.1681 13.9202C25.6848 14.1498 26.3004 14.2647 27.0149 14.2647C27.6209 14.2647 28.0834 14.1626 28.4024 13.9585C28.7277 13.7543 28.8904 13.4673 28.8904 13.0973C28.8904 12.7719 28.7851 12.5104 28.5746 12.3126C28.3705 12.1085 28.1217 11.949 27.8283 11.8342C27.5412 11.713 27.2701 11.6173 27.0149 11.5471C26.5875 11.4323 26.1441 11.2887 25.6848 11.1165C25.2319 10.9379 24.8491 10.6731 24.5366 10.3223C24.224 9.97142 24.0677 9.48022 24.0677 8.84867C24.0677 8.37023 24.1825 7.9173 24.4122 7.48989C24.6418 7.0561 25.015 6.70524 25.5317 6.43732C26.0484 6.16939 26.7342 6.03542 27.589 6.03542C28.2142 6.03542 28.7213 6.10241 29.1105 6.23637C29.506 6.36395 29.8473 6.50111 30.1344 6.64783L29.9238 8.21713C29.6495 7.98747 29.3306 7.79291 28.967 7.63343C28.6033 7.47394 28.1568 7.3942 27.6273 7.3942C27.0915 7.3942 26.6545 7.49627 26.3164 7.70041C25.9783 7.89817 25.8092 8.21713 25.8092 8.6573C25.8092 9.09747 25.9878 9.41005 26.3451 9.59505C26.7087 9.78005 27.2573 9.98418 27.9909 10.2075C28.2206 10.2712 28.4853 10.3637 28.7851 10.485C29.0913 10.6062 29.388 10.7688 29.675 10.973C29.9621 11.1771 30.1981 11.445 30.3831 11.7768C30.5745 12.1021 30.6702 12.5104 30.6702 13.0016C30.6702 13.4162 30.5713 13.8404 30.3736 14.2742C30.1758 14.7016 29.8186 15.0621 29.3019 15.3555C28.7851 15.649 28.0483 15.7957 27.0914 15.7957Z" fill="white"/>
<path d="M35.5898 15.7957C34.9965 15.7957 34.5213 15.6872 34.164 15.4703C33.8068 15.2534 33.5453 14.9759 33.3794 14.6378C33.2199 14.2934 33.1402 13.9329 33.1402 13.5566V7.56644H31.5326L31.6857 6.2268H33.1402V3.91113L34.8626 3.73889V6.2268H37.3314V7.56644H34.8626V12.504C34.8626 13.1036 34.8977 13.5374 34.9678 13.8054C35.038 14.0733 35.2102 14.2423 35.4846 14.3125C35.7652 14.3827 36.215 14.4178 36.8338 14.4178H37.2739L37.14 15.7957H35.5898Z" fill="white"/>
<path d="M40.985 15.7957C40.4045 15.7957 39.8974 15.6777 39.4636 15.4416C39.0298 15.2056 38.6917 14.8834 38.4493 14.4752C38.2132 14.0669 38.0952 13.6012 38.0952 13.0781C38.0952 12.5486 38.21 12.0957 38.4397 11.7193C38.6757 11.3366 38.9883 11.0208 39.3774 10.772C39.773 10.5169 40.2131 10.3159 40.698 10.1692C41.1828 10.0161 41.6835 9.90763 42.2003 9.84384C42.7234 9.77367 43.2241 9.73539 43.7026 9.72901C43.7026 8.83592 43.5272 8.25221 43.1763 7.97791C42.8254 7.7036 42.3183 7.56644 41.6548 7.56644C41.304 7.56644 40.9276 7.62067 40.5257 7.72912C40.1302 7.83756 39.6837 8.06403 39.1861 8.40851L38.9373 7.01145C39.3137 6.72438 39.7825 6.49154 40.3439 6.31292C40.9053 6.12792 41.4954 6.03542 42.1141 6.03542C42.9052 6.03542 43.5431 6.17577 44.0279 6.45645C44.5127 6.73076 44.8668 7.19645 45.0901 7.85351C45.3133 8.51057 45.425 9.40367 45.425 10.5328V12.4466C45.425 12.8931 45.4441 13.2631 45.4824 13.5566C45.527 13.8436 45.6227 14.0605 45.7695 14.2072C45.9226 14.3476 46.165 14.4178 46.4967 14.4178H46.6689L46.401 15.7957H46.267C45.712 15.7957 45.2814 15.7415 44.9752 15.633C44.6754 15.5246 44.4458 15.3683 44.2863 15.1641C44.1268 14.96 43.9833 14.7112 43.8557 14.4178C43.5048 14.826 43.0902 15.1578 42.6117 15.4129C42.1333 15.6681 41.591 15.7957 40.985 15.7957ZM41.3104 14.4178C41.7697 14.4178 42.213 14.3029 42.6404 14.0733C43.0742 13.8436 43.4283 13.5374 43.7026 13.1547V10.9156C42.7903 10.9474 42.0504 11.0368 41.4826 11.1835C40.9212 11.3302 40.5098 11.5503 40.2482 11.8437C39.9867 12.1372 39.8559 12.5167 39.8559 12.9824C39.8559 13.4864 39.9899 13.8532 40.2578 14.0829C40.5321 14.3061 40.8829 14.4178 41.3104 14.4178Z" fill="white"/>
<path d="M47.9984 15.6043V6.2268H49.7208V15.6043H47.9984Z" fill="white"/>
<path d="M52.054 15.6043V6.2268H53.7381V8.02575L53.0683 7.73868C53.6998 7.03697 54.3154 6.57766 54.9151 6.36077C55.5211 6.14387 56.1112 6.03542 56.6853 6.03542C58.0569 6.03542 59.0361 6.43094 59.623 7.22196C60.2162 8.01299 60.5129 9.08471 60.5129 10.4371V15.6043H58.7905V10.4371C58.7905 9.44195 58.6055 8.71471 58.2355 8.2554C57.8655 7.7961 57.2339 7.56644 56.3408 7.56644C55.7093 7.56644 55.1288 7.70679 54.5993 7.98747C54.0762 8.26178 53.7317 8.70195 53.5659 9.30798L53.7764 8.2554V15.6043H52.054Z" fill="white"/>
</svg>
