<svg width="60" height="25" viewBox="0 0 60 25" fill="none" xmlns="http://www.w3.org/2000/svg">
<path d="M0 22.6423V1.68164H4.27252L13.4954 16.2023V1.68164H17.2544V22.6423H13.1873L3.759 8.26518L3.77954 22.6423H0Z" fill="white"/>
<path d="M55.7275 1.68164L50.4073 17.2688H50.3252L44.9229 1.68164H40.1985L48.0451 22.6423H52.6052L58.9318 4.6145L60 1.68164H55.7275Z" fill="white"/>
<path d="M33.5229 14.1103V10.1315L30.0926 8.14209L26.6417 10.1315V14.1103L30.0926 16.0793L33.5229 14.1103Z" fill="white"/>
<path d="M19.5134 6.27563V18.0481L23.3135 15.8535V8.47014L19.5134 6.27563Z" fill="white"/>
<path d="M29.949 0L19.7401 5.88621L23.5402 8.08073L29.949 4.36851V0Z" fill="white"/>
<path d="M29.949 19.9349L23.5402 16.2432L19.7401 18.4377L29.949 24.3034V19.9349Z" fill="white"/>
<path d="M36.727 16.2847L30.4004 19.9354V24.3039L40.5065 18.4997L38.4935 13.1057L36.727 16.2847Z" fill="white"/>
<path d="M39.9725 5.51704L30.4004 0V4.36851L36.5832 7.93716L39.9725 5.51704Z" fill="white"/>
</svg>
