<svg width="202" height="66" viewBox="0 0 202 66" fill="none" xmlns="http://www.w3.org/2000/svg">
<path d="M194.476 66C193.453 66 192.546 65.8516 191.755 65.5547C190.963 65.2414 190.295 64.8044 189.751 64.2437C189.207 63.6665 188.795 62.9821 188.514 62.1906C188.25 61.3825 188.118 60.4755 188.118 59.4696C188.118 58.4636 188.25 57.5401 188.514 56.6991C188.795 55.8416 189.19 55.0995 189.702 54.4728C190.229 53.8462 190.872 53.3597 191.631 53.0134C192.406 52.6671 193.288 52.4939 194.278 52.4939C195.168 52.4939 195.968 52.6423 196.677 52.9392C197.403 53.236 198.013 53.6895 198.508 54.2997C199.002 54.8933 199.365 55.6437 199.596 56.5507C199.843 57.4412 199.942 58.4801 199.893 59.6675L189.825 59.7417V58.0596L198.26 57.9854L197.37 58.9996C197.452 58.0431 197.362 57.2433 197.098 56.6001C196.85 55.957 196.479 55.4788 195.985 55.1654C195.49 54.8521 194.921 54.6954 194.278 54.6954C193.552 54.6954 192.917 54.8851 192.373 55.2644C191.845 55.6272 191.433 56.1631 191.136 56.8722C190.856 57.5814 190.716 58.4306 190.716 59.4201C190.716 60.9043 191.037 62.0257 191.68 62.7843C192.34 63.5263 193.28 63.8974 194.5 63.8974C195.012 63.8974 195.449 63.8397 195.811 63.7242C196.191 63.5923 196.504 63.4192 196.751 63.2048C196.999 62.9739 197.197 62.7183 197.345 62.4379C197.494 62.1411 197.609 61.836 197.691 61.5227L200.066 62.0422C199.918 62.6358 199.695 63.18 199.398 63.6748C199.118 64.153 198.747 64.5653 198.285 64.9116C197.823 65.2579 197.279 65.5218 196.652 65.7032C196.026 65.901 195.3 66 194.476 66Z" fill="#1102AD"/>
<path d="M178.93 65.6783V58.9995V52.8154H181.28L181.132 57.3669H181.552C181.701 56.328 181.932 55.4457 182.245 54.7201C182.558 53.9945 182.979 53.4503 183.507 53.0875C184.051 52.7082 184.71 52.5186 185.486 52.5186C185.667 52.5186 185.857 52.535 186.054 52.568C186.269 52.5845 186.508 52.634 186.772 52.7164L186.623 55.5364C186.376 55.4375 186.12 55.3632 185.857 55.3138C185.593 55.2643 185.345 55.2396 185.114 55.2396C184.471 55.2396 183.919 55.4292 183.457 55.8085C182.995 56.1878 182.616 56.7155 182.319 57.3916C182.022 58.0678 181.792 58.8428 181.627 59.7169V65.6783H178.93Z" fill="#1102AD"/>
<path d="M169.763 66C168.51 66 167.405 65.7361 166.448 65.2084C165.508 64.6807 164.766 63.9139 164.222 62.9079C163.694 61.902 163.43 60.6652 163.43 59.1975C163.43 57.6968 163.702 56.4517 164.247 55.4623C164.807 54.4728 165.558 53.7307 166.498 53.236C167.454 52.7413 168.526 52.4939 169.713 52.4939C170.934 52.4939 172.022 52.7495 172.979 53.2607C173.935 53.7719 174.685 54.5305 175.23 55.5365C175.774 56.5424 176.046 57.7957 176.046 59.2964C176.046 60.7806 175.774 62.0257 175.23 63.0316C174.685 64.0211 173.935 64.7632 172.979 65.2579C172.022 65.7526 170.95 66 169.763 66ZM169.837 63.8727C170.266 63.8727 170.686 63.7984 171.099 63.65C171.511 63.5016 171.882 63.2625 172.212 62.9327C172.558 62.5864 172.83 62.1246 173.028 61.5474C173.242 60.9703 173.35 60.2529 173.35 59.3954C173.35 58.5213 173.242 57.7875 173.028 57.1938C172.814 56.5837 172.525 56.0972 172.162 55.7344C171.816 55.3551 171.42 55.0912 170.975 54.9428C170.53 54.7779 170.084 54.6954 169.639 54.6954C169.227 54.6954 168.815 54.7696 168.402 54.9181C167.99 55.0665 167.611 55.3056 167.264 55.6354C166.935 55.9652 166.663 56.4187 166.448 56.9959C166.234 57.5731 166.127 58.2905 166.127 59.148C166.127 60.022 166.234 60.7641 166.448 61.3743C166.663 61.968 166.943 62.4544 167.289 62.8337C167.652 63.1965 168.048 63.4604 168.477 63.6253C168.922 63.7902 169.375 63.8727 169.837 63.8727Z" fill="#1102AD"/>
<path d="M154.872 66C153.668 66 152.588 65.8186 151.631 65.4558C150.675 65.093 149.867 64.557 149.207 63.8479C148.547 63.1388 148.044 62.273 147.698 61.2506C147.368 60.2116 147.203 59.0243 147.203 57.6885C147.203 56.3527 147.377 55.1489 147.723 54.077C148.086 53.0051 148.597 52.0981 149.256 51.356C149.916 50.5974 150.699 50.0202 151.606 49.6244C152.53 49.2287 153.561 49.0308 154.699 49.0308C155.589 49.0308 156.405 49.1544 157.147 49.4018C157.906 49.6327 158.549 49.979 159.077 50.4407C159.621 50.9025 160.042 51.4549 160.338 52.0981C160.652 52.7412 160.808 53.4668 160.808 54.2749L158.285 54.918C158.302 54.11 158.137 53.4421 157.791 52.9144C157.461 52.3867 157.015 51.9909 156.455 51.727C155.894 51.4632 155.284 51.3313 154.624 51.3313C154.031 51.3313 153.453 51.4467 152.893 51.6776C152.349 51.9084 151.854 52.2795 151.409 52.7907C150.98 53.2854 150.633 53.9286 150.37 54.7201C150.122 55.5117 149.999 56.4599 149.999 57.5648C149.999 58.9995 150.205 60.1704 150.617 61.0774C151.029 61.9679 151.606 62.6276 152.349 63.0563C153.107 63.4851 153.973 63.6995 154.946 63.6995C155.919 63.6995 156.694 63.5098 157.271 63.1305C157.848 62.7512 158.269 62.24 158.533 61.5969C158.813 60.9537 158.97 60.2199 159.003 59.3953L161.402 59.7911C161.402 60.6486 161.278 61.4567 161.031 62.2153C160.784 62.9739 160.396 63.6418 159.868 64.2189C159.357 64.7796 158.681 65.2166 157.84 65.53C157.015 65.8433 156.026 66 154.872 66Z" fill="#EA5455"/>
<path d="M156.874 22.7528V16.3491L151.348 13.1472L145.826 16.3491V22.7528L151.348 25.9547L156.874 22.7528Z" fill="#72BF44"/>
<path d="M134.37 10.1216V29.1059L140.459 25.5776V13.6499L134.37 10.1216Z" fill="#9DA6AB"/>
<path d="M168.571 29.1167L168.469 10.0122L162.464 13.69V25.5126L168.571 29.1167Z" fill="#9DA6AB"/>
<path d="M151.112 0L134.731 9.49061L140.82 13.0189L151.112 7.05657V0Z" fill="#A6CE39"/>
<path d="M151.112 32.1703L140.82 26.208L134.731 29.7363L151.112 39.23V32.1703Z" fill="#727D84"/>
<path d="M162.003 26.2837L151.838 32.1714V39.2311L168.07 29.8586L162.003 26.2837Z" fill="#48535B"/>
<path d="M167.654 9.1947L151.838 0V7.05657L162.056 13.0769L164.804 11.1358L167.654 9.1947Z" fill="#72BF44"/>
<path d="M107.255 9.33959V6.32682L104.542 4.82043L101.832 6.32682V9.33959L104.542 10.846L107.255 9.33959Z" fill="#72BF44"/>
<path d="M106.652 9.0383V6.62808L104.543 5.42297L102.434 6.62808V9.0383L104.543 10.2434L106.652 9.0383Z" fill="#72BF44"/>
<path d="M201.231 8.04011L201.252 16.4323L187.431 8.28537V0.0211182L201.231 8.04011Z" fill="#73BF44"/>
<path d="M187.379 8.28557L180.882 12.0711L173.611 8.02965L187.432 0L187.379 8.28557Z" fill="#A5CD39"/>
<path d="M173.611 8.02917L201.253 23.3847V31.1691L173.621 15.9309L173.611 8.02917Z" fill="#9DA5AB"/>
<path d="M201.252 31.169L193.792 27.0529L187.389 30.9664L187.432 39.2306L201.252 31.169Z" fill="#737D84"/>
<path d="M187.389 30.9666L187.432 39.2308L173.611 31.2225L173.59 23.0542L187.389 30.9666Z" fill="#49545C"/>
<path d="M27.0933 8.02687L27.114 16.4052L13.5669 8.27172V0.0211182L27.0933 8.02687Z" fill="#73BF44"/>
<path d="M13.5163 8.27189L7.14727 12.0512L0.0210266 8.01639L13.5682 0L13.5163 8.27189Z" fill="#A5CD39"/>
<path d="M0.0205994 8.01587L27.1148 23.346V31.1176L0.0309508 15.9045L0.0205994 8.01587Z" fill="#9DA5AB"/>
<path d="M27.1149 31.1173L19.8019 27.0079L13.5263 30.915L13.5678 39.1656L27.1149 31.1173Z" fill="#737D84"/>
<path d="M13.5264 30.9154L13.5679 39.166L0.0207663 31.1709L0 23.0161L13.5264 30.9154Z" fill="#49545C"/>
<path d="M38.0312 32.345C36.4605 32.345 35.1221 32.0309 34.0158 31.4026C32.9095 30.7607 32.0627 29.791 31.4754 28.4935C30.9018 27.196 30.615 25.5434 30.615 23.5357V11.8582H34.3026V22.5114C34.3026 24.642 34.6645 26.2673 35.3884 27.3872C36.1259 28.5072 37.321 29.0671 38.9736 29.0671C40.1072 29.0671 41.1589 28.794 42.1286 28.2477C43.0983 27.7014 43.7675 26.8273 44.1363 25.6254L43.6036 27.6331V11.8582H47.2913V31.9353H44.0134L43.2758 28.0018L44.2592 28.6574C43.59 29.9003 42.7705 30.829 41.8008 31.4436C40.8447 32.0446 39.5882 32.345 38.0312 32.345Z" fill="#231F20"/>
<path d="M58.0023 32.345C56.2268 32.345 54.7518 32.1333 53.5772 31.7099C52.4163 31.2866 51.5968 30.911 51.1188 30.5832L51.5695 27.0185C52.0065 27.4009 52.7782 27.8379 53.8845 28.3296C54.9908 28.8213 56.3088 29.0671 57.8385 29.0671C59.136 29.0671 60.1262 28.8486 60.809 28.4116C61.5056 27.9745 61.8539 27.3599 61.8539 26.5677C61.8539 25.8712 61.6285 25.3112 61.1778 24.8878C60.7408 24.4508 60.2081 24.1093 59.5798 23.8635C58.9652 23.604 58.3848 23.3991 57.8385 23.2489C56.9234 23.003 55.9742 22.6957 54.9908 22.327C54.0211 21.9446 53.2016 21.3777 52.5324 20.6266C51.8631 19.8754 51.5285 18.8237 51.5285 17.4716C51.5285 16.4472 51.7744 15.4775 52.266 14.5625C52.7577 13.6337 53.5567 12.8825 54.663 12.3089C55.7693 11.7353 57.2375 11.4485 59.0677 11.4485C60.4061 11.4485 61.4919 11.5919 62.3251 11.8787C63.1719 12.1518 63.9026 12.4455 64.5172 12.7596L64.0665 16.1195C63.4792 15.6278 62.7963 15.2112 62.0178 14.8698C61.2393 14.5283 60.2832 14.3576 59.1496 14.3576C58.0024 14.3576 57.0668 14.5761 56.3429 15.0132C55.619 15.4366 55.2571 16.1195 55.2571 17.0619C55.2571 18.0043 55.6395 18.6735 56.4044 19.0696C57.1829 19.4656 58.3575 19.9027 59.9281 20.3807C60.4198 20.5173 60.9866 20.7153 61.6285 20.9748C62.2841 21.2343 62.9192 21.5826 63.5338 22.0197C64.1484 22.4567 64.6537 23.0304 65.0498 23.7406C65.4596 24.4371 65.6644 25.3112 65.6644 26.3629C65.6644 27.2506 65.4527 28.1589 65.0293 29.0876C64.6059 30.0027 63.8411 30.7744 62.7348 31.4026C61.6285 32.0309 60.051 32.345 58.0023 32.345Z" fill="#231F20"/>
<path d="M76.1972 32.345C74.927 32.345 73.9095 32.1129 73.1447 31.6485C72.3798 31.1841 71.8199 30.59 71.4648 29.8661C71.1233 29.1286 70.9526 28.3569 70.9526 27.5511V14.7264H67.5108L67.8386 11.8582H70.9526V6.90038L74.6402 6.53162V11.8582H79.9258V14.7264H74.6402V25.2976C74.6402 26.5814 74.7153 27.5101 74.8656 28.0838C75.0158 28.6574 75.3846 29.0193 75.9719 29.1696C76.5728 29.3198 77.5357 29.3949 78.8605 29.3949H79.8029L79.5161 32.345H76.1972Z" fill="#231F20"/>
<path d="M87.7483 32.345C86.5054 32.345 85.4196 32.0924 84.4909 31.587C83.5621 31.0817 82.8383 30.392 82.3193 29.5179C81.8139 28.6437 81.5613 27.6467 81.5613 26.5268C81.5613 25.3932 81.8071 24.4235 82.2988 23.6176C82.8041 22.7982 83.4734 22.1221 84.3065 21.5894C85.1533 21.0431 86.0957 20.6129 87.1337 20.2988C88.1717 19.971 89.2438 19.7388 90.3501 19.6022C91.4701 19.452 92.5422 19.37 93.5666 19.3564C93.5666 17.4443 93.191 16.1946 92.4398 15.6073C91.6886 15.02 90.6028 14.7264 89.1824 14.7264C88.4312 14.7264 87.6254 14.8424 86.7649 15.0746C85.9181 15.3068 84.9621 15.7917 83.8968 16.5292L83.3641 13.5381C84.1699 12.9235 85.1738 12.425 86.3757 12.0426C87.5776 11.6465 88.8409 11.4485 90.1657 11.4485C91.8593 11.4485 93.2251 11.7489 94.2631 12.3499C95.3011 12.9372 96.0591 13.9342 96.5371 15.341C97.0152 16.7477 97.2542 18.6598 97.2542 21.0773V25.1746C97.2542 26.1307 97.2952 26.9229 97.3771 27.5511C97.4727 28.1657 97.6776 28.6301 97.9917 28.9442C98.3195 29.2447 98.8385 29.3949 99.5487 29.3949H99.9175L99.3438 32.345H99.057C97.8688 32.345 96.9469 32.2289 96.2913 31.9968C95.6494 31.7646 95.1577 31.43 94.8163 30.9929C94.4748 30.5559 94.1675 30.0232 93.8943 29.3949C93.1432 30.269 92.2554 30.9792 91.2311 31.5256C90.2067 32.0719 89.0458 32.345 87.7483 32.345ZM88.4448 29.3949C89.4282 29.3949 90.3774 29.1491 91.2925 28.6574C92.2212 28.1657 92.9793 27.5101 93.5666 26.6907V21.8967C91.6135 21.965 90.0292 22.1562 88.8136 22.4704C87.6117 22.7845 86.7308 23.2557 86.1708 23.884C85.6108 24.5122 85.3308 25.3249 85.3308 26.3219C85.3308 27.4009 85.6177 28.1862 86.1913 28.6779C86.7786 29.1559 87.5298 29.3949 88.4448 29.3949Z" fill="#231F20"/>
<path d="M102.764 31.9353V11.8582H106.451V31.9353H102.764Z" fill="#231F20"/>
<path d="M111.447 31.9353V11.8582H115.052V15.7097L113.618 15.0951C114.971 13.5927 116.288 12.6094 117.572 12.145C118.87 11.6806 120.133 11.4485 121.362 11.4485C124.299 11.4485 126.395 12.2952 127.652 13.9888C128.922 15.6824 129.557 17.9769 129.557 20.8724V31.9353H125.87V20.8724C125.87 18.7418 125.473 17.1848 124.681 16.2014C123.889 15.218 122.537 14.7264 120.625 14.7264C119.273 14.7264 118.03 15.0268 116.896 15.6278C115.776 16.2151 115.039 17.1575 114.684 18.455L115.134 16.2014V31.9353H111.447Z" fill="#231F20"/>
</svg>
