<svg width="673" height="191" viewBox="0 0 673 191" fill="none" xmlns="http://www.w3.org/2000/svg">
<path d="M280.049 180.625C277.781 180.625 275.651 180.208 273.66 179.375C271.693 178.519 269.957 177.35 268.452 175.868C266.947 174.387 265.767 172.662 264.91 170.694C264.054 168.727 263.626 166.62 263.626 164.375C263.626 162.13 264.054 160.023 264.91 158.056C265.767 156.088 266.947 154.363 268.452 152.882C269.957 151.4 271.693 150.243 273.66 149.41C275.651 148.553 277.781 148.125 280.049 148.125C282.202 148.125 284.216 148.495 286.091 149.236C287.989 149.977 289.667 151.019 291.126 152.361L289.667 158.403C288.695 156.829 287.387 155.544 285.744 154.549C284.1 153.53 282.237 153.021 280.153 153.021C278.07 153.021 276.183 153.53 274.494 154.549C272.827 155.567 271.496 156.933 270.501 158.646C269.528 160.359 269.042 162.269 269.042 164.375C269.042 166.458 269.528 168.368 270.501 170.104C271.496 171.817 272.827 173.183 274.494 174.201C276.183 175.22 278.07 175.729 280.153 175.729C282.237 175.729 284.1 175.22 285.744 174.201C287.387 173.183 288.695 171.898 289.667 170.347L291.126 176.389C289.644 177.685 287.966 178.715 286.091 179.479C284.216 180.243 282.202 180.625 280.049 180.625ZM558.443 180.556C556.568 180.556 554.832 180.197 553.235 179.479C551.638 178.738 550.365 177.859 549.416 176.84L550.839 170.972C551.557 172.315 552.61 173.484 553.999 174.479C555.388 175.475 556.927 175.972 558.617 175.972C560.075 175.972 561.256 175.544 562.159 174.687C563.061 173.808 563.513 172.731 563.513 171.458C563.513 170.509 563.281 169.722 562.818 169.097C562.355 168.472 561.823 167.975 561.221 167.604C560.642 167.211 560.156 166.921 559.763 166.736L556.013 164.826C555.179 164.41 554.288 163.877 553.339 163.229C552.413 162.558 551.626 161.701 550.978 160.66C550.353 159.595 550.041 158.264 550.041 156.667C550.041 155 550.422 153.53 551.186 152.257C551.95 150.984 553.015 149.988 554.381 149.271C555.77 148.553 557.378 148.194 559.207 148.194C560.966 148.194 562.529 148.495 563.895 149.097C565.26 149.676 566.348 150.289 567.159 150.937L565.77 156.701C565.029 155.613 564.045 154.676 562.818 153.889C561.615 153.102 560.341 152.708 558.999 152.708C557.726 152.708 556.73 153.056 556.013 153.75C555.295 154.444 554.936 155.312 554.936 156.354C554.936 157.072 555.098 157.685 555.422 158.194C555.77 158.704 556.186 159.132 556.672 159.479C557.182 159.803 557.679 160.093 558.166 160.347L561.985 162.257C562.517 162.512 563.142 162.87 563.86 163.333C564.601 163.773 565.318 164.34 566.013 165.035C566.707 165.729 567.274 166.574 567.714 167.569C568.177 168.565 568.409 169.757 568.409 171.146C568.409 172.951 567.98 174.56 567.124 175.972C566.291 177.384 565.133 178.507 563.652 179.34C562.17 180.15 560.434 180.556 558.443 180.556Z" fill="#C43E1C"/>
<path d="M305.033 180.556C302.996 180.556 301.132 180.069 299.443 179.097C297.753 178.102 296.41 176.771 295.415 175.104C294.419 173.437 293.922 171.597 293.922 169.583C293.922 167.546 294.419 165.706 295.415 164.063C296.41 162.396 297.753 161.076 299.443 160.104C301.132 159.109 302.996 158.611 305.033 158.611C307.093 158.611 308.957 159.109 310.623 160.104C312.313 161.076 313.656 162.396 314.651 164.063C315.646 165.706 316.144 167.546 316.144 169.583C316.144 171.597 315.646 173.437 314.651 175.104C313.656 176.771 312.313 178.102 310.623 179.097C308.957 180.069 307.093 180.556 305.033 180.556ZM305.033 176.076C306.237 176.076 307.313 175.787 308.262 175.208C309.234 174.606 310.01 173.819 310.588 172.847C311.167 171.875 311.457 170.787 311.457 169.583C311.457 168.38 311.167 167.292 310.588 166.319C310.01 165.347 309.234 164.572 308.262 163.993C307.29 163.391 306.213 163.09 305.033 163.09C303.852 163.09 302.776 163.391 301.804 163.993C300.832 164.572 300.056 165.347 299.477 166.319C298.922 167.292 298.644 168.38 298.644 169.583C298.644 170.787 298.922 171.875 299.477 172.847C300.056 173.819 300.82 174.606 301.769 175.208C302.741 175.787 303.829 176.076 305.033 176.076ZM320.514 180V159.167H324.958V161.979C325.722 160.891 326.671 160.058 327.805 159.479C328.963 158.9 330.213 158.611 331.555 158.611C333.037 158.611 334.414 158.97 335.687 159.688C336.96 160.405 337.99 161.447 338.777 162.812C339.565 164.178 339.958 165.833 339.958 167.778V180H335.062V168.437C335.062 167.025 334.646 165.787 333.812 164.722C332.979 163.634 331.787 163.09 330.236 163.09C328.986 163.09 327.863 163.53 326.868 164.41C325.896 165.289 325.409 166.597 325.409 168.333V180H320.514ZM347.602 180V163.125H343.297V159.167H347.707V155.521C347.707 153.53 348.158 151.852 349.061 150.486C349.963 149.097 351.156 148.044 352.637 147.326C354.119 146.609 355.727 146.25 357.463 146.25C360.033 146.25 362.197 146.898 363.957 148.194L362.776 152.917C362.197 152.153 361.468 151.551 360.588 151.111C359.709 150.648 358.725 150.417 357.637 150.417C356.109 150.417 354.848 150.891 353.852 151.84C352.88 152.766 352.394 154.086 352.394 155.799V159.167H365.936V180H361.04V163.125H352.498V180H347.602ZM380.324 190.972C378.703 190.972 377.199 190.729 375.81 190.243C374.421 189.78 373.206 189.144 372.164 188.333L373.414 183.229C374.132 184.225 375.081 185.035 376.261 185.66C377.442 186.308 378.784 186.632 380.289 186.632C382.534 186.632 384.305 185.972 385.602 184.653C386.921 183.356 387.581 181.667 387.581 179.583V177.604C386.724 178.461 385.706 179.144 384.525 179.653C383.345 180.162 382.071 180.417 380.706 180.417C378.784 180.417 377.037 179.931 375.463 178.958C373.889 177.963 372.627 176.655 371.678 175.035C370.752 173.391 370.289 171.574 370.289 169.583C370.289 167.593 370.752 165.775 371.678 164.132C372.627 162.488 373.889 161.181 375.463 160.208C377.037 159.236 378.784 158.75 380.706 158.75C382.095 158.75 383.379 159.005 384.56 159.514C385.74 160 386.759 160.694 387.615 161.597V159.167H391.956V180.139C391.956 182.407 391.412 184.352 390.324 185.972C389.259 187.593 387.835 188.831 386.053 189.688C384.27 190.544 382.361 190.972 380.324 190.972ZM381.296 176.042C382.477 176.042 383.541 175.752 384.49 175.174C385.439 174.595 386.192 173.819 386.747 172.847C387.326 171.875 387.615 170.787 387.615 169.583C387.615 168.38 387.326 167.292 386.747 166.319C386.192 165.347 385.439 164.572 384.49 163.993C383.541 163.391 382.477 163.09 381.296 163.09C380.139 163.09 379.074 163.391 378.102 163.993C377.152 164.572 376.389 165.347 375.81 166.319C375.254 167.292 374.977 168.38 374.977 169.583C374.977 170.764 375.254 171.852 375.81 172.847C376.389 173.819 377.152 174.595 378.102 175.174C379.051 175.752 380.115 176.042 381.296 176.042ZM405.585 180.556C404.127 180.556 402.75 180.197 401.453 179.479C400.18 178.762 399.138 177.72 398.328 176.354C397.541 174.965 397.148 173.31 397.148 171.389V159.167H402.044V170.729C402.044 172.141 402.46 173.391 403.294 174.479C404.15 175.544 405.342 176.076 406.87 176.076C408.12 176.076 409.231 175.625 410.203 174.722C411.199 173.819 411.696 172.512 411.696 170.799V159.167H416.592V180H412.113V177.222C411.372 178.287 410.423 179.109 409.266 179.687C408.132 180.266 406.905 180.556 405.585 180.556ZM422.223 180V159.167H426.667V162.847C427.408 161.644 428.357 160.694 429.514 160C430.672 159.306 432.049 158.958 433.646 158.958L434.757 163.507C434.318 163.368 433.82 163.299 433.264 163.299C431.412 163.299 429.919 163.889 428.785 165.069C427.674 166.25 427.118 167.94 427.118 170.139V180H422.223ZM446.526 180.417C444.605 180.417 442.857 179.931 441.283 178.958C439.709 177.963 438.447 176.655 437.498 175.035C436.572 173.391 436.109 171.574 436.109 169.583C436.109 167.593 436.572 165.775 437.498 164.132C438.447 162.488 439.709 161.181 441.283 160.208C442.857 159.236 444.605 158.75 446.526 158.75C447.915 158.75 449.2 159.005 450.38 159.514C451.561 160 452.579 160.694 453.436 161.597V159.167H457.776V180H453.436V177.569C452.579 178.449 451.561 179.144 450.38 179.653C449.2 180.162 447.915 180.417 446.526 180.417ZM447.116 176.042C448.297 176.042 449.362 175.752 450.311 175.174C451.26 174.595 452.012 173.819 452.568 172.847C453.146 171.875 453.436 170.787 453.436 169.583C453.436 168.38 453.146 167.292 452.568 166.319C452.012 165.347 451.26 164.572 450.311 163.993C449.362 163.391 448.297 163.09 447.116 163.09C445.959 163.09 444.894 163.391 443.922 163.993C442.973 164.572 442.209 165.347 441.63 166.319C441.075 167.292 440.797 168.38 440.797 169.583C440.797 170.764 441.075 171.852 441.63 172.847C442.209 173.819 442.973 174.595 443.922 175.174C444.871 175.752 445.936 176.042 447.116 176.042ZM465.815 180V163.125H461.51V159.167H465.919V152.222H470.607V159.167H475.26V163.125H470.711V180H465.815ZM479.044 180V159.167H483.94V180H479.044ZM481.51 155.764C480.723 155.764 480.051 155.486 479.496 154.931C478.94 154.375 478.662 153.704 478.662 152.917C478.662 152.083 478.94 151.4 479.496 150.868C480.051 150.312 480.723 150.035 481.51 150.035C482.343 150.035 483.026 150.312 483.558 150.868C484.114 151.424 484.392 152.106 484.392 152.917C484.392 153.704 484.114 154.375 483.558 154.931C483.003 155.486 482.32 155.764 481.51 155.764ZM499.467 180.556C497.429 180.556 495.566 180.069 493.876 179.097C492.186 178.102 490.844 176.771 489.848 175.104C488.853 173.437 488.355 171.597 488.355 169.583C488.355 167.546 488.853 165.706 489.848 164.063C490.844 162.396 492.186 161.076 493.876 160.104C495.566 159.109 497.429 158.611 499.467 158.611C501.527 158.611 503.39 159.109 505.057 160.104C506.747 161.076 508.089 162.396 509.085 164.063C510.08 165.706 510.578 167.546 510.578 169.583C510.578 171.597 510.08 173.437 509.085 175.104C508.089 176.771 506.747 178.102 505.057 179.097C503.39 180.069 501.527 180.556 499.467 180.556ZM499.467 176.076C500.67 176.076 501.747 175.787 502.696 175.208C503.668 174.606 504.443 173.819 505.022 172.847C505.601 171.875 505.89 170.787 505.89 169.583C505.89 168.38 505.601 167.292 505.022 166.319C504.443 165.347 503.668 164.572 502.696 163.993C501.723 163.391 500.647 163.09 499.467 163.09C498.286 163.09 497.21 163.391 496.237 163.993C495.265 164.572 494.49 165.347 493.911 166.319C493.355 167.292 493.078 168.38 493.078 169.583C493.078 170.787 493.355 171.875 493.911 172.847C494.49 173.819 495.254 174.606 496.203 175.208C497.175 175.787 498.263 176.076 499.467 176.076ZM514.947 180V159.167H519.392V161.979C520.156 160.891 521.105 160.058 522.239 159.479C523.396 158.9 524.646 158.611 525.989 158.611C527.47 158.611 528.848 158.97 530.121 159.688C531.394 160.405 532.424 161.447 533.211 162.812C533.998 164.178 534.392 165.833 534.392 167.778V180H529.496V168.437C529.496 167.025 529.079 165.787 528.246 164.722C527.412 163.634 526.22 163.09 524.669 163.09C523.419 163.09 522.297 163.53 521.301 164.41C520.329 165.289 519.843 166.597 519.843 168.333V180H514.947ZM575.337 180V163.125H571.031V159.167H575.441V152.222H580.128V159.167H584.781V163.125H580.233V180H575.337ZM596.552 180.556C595.094 180.556 593.716 180.197 592.42 179.479C591.147 178.762 590.105 177.72 589.295 176.354C588.508 174.965 588.115 173.31 588.115 171.389V159.167H593.01V170.729C593.01 172.141 593.427 173.391 594.26 174.479C595.117 175.544 596.309 176.076 597.837 176.076C599.087 176.076 600.198 175.625 601.17 174.722C602.165 173.819 602.663 172.512 602.663 170.799V159.167H607.559V180H603.08V177.222C602.339 178.287 601.39 179.109 600.233 179.687C599.098 180.266 597.871 180.556 596.552 180.556ZM622.356 180.417C620.435 180.417 618.687 179.931 617.113 178.958C615.539 177.963 614.277 176.655 613.328 175.035C612.402 173.391 611.939 171.574 611.939 169.583C611.939 167.593 612.402 165.775 613.328 164.132C614.277 162.488 615.539 161.181 617.113 160.208C618.687 159.236 620.435 158.75 622.356 158.75C623.606 158.75 624.763 158.958 625.828 159.375C626.916 159.769 627.877 160.324 628.71 161.042V146.667H633.606V180H629.266V177.604C628.409 178.461 627.391 179.144 626.21 179.653C625.03 180.162 623.745 180.417 622.356 180.417ZM622.946 176.042C624.127 176.042 625.192 175.752 626.141 175.174C627.09 174.595 627.842 173.819 628.398 172.847C628.976 171.875 629.266 170.787 629.266 169.583C629.266 168.38 628.976 167.292 628.398 166.319C627.842 165.347 627.09 164.572 626.141 163.993C625.192 163.391 624.127 163.09 622.946 163.09C621.789 163.09 620.724 163.391 619.752 163.993C618.803 164.572 618.039 165.347 617.46 166.319C616.905 167.292 616.627 168.38 616.627 169.583C616.627 170.764 616.905 171.852 617.46 172.847C618.039 173.819 618.803 174.595 619.752 175.174C620.701 175.752 621.766 176.042 622.946 176.042ZM639.25 180V159.167H644.145V180H639.25ZM641.715 155.764C640.928 155.764 640.256 155.486 639.701 154.931C639.145 154.375 638.868 153.704 638.868 152.917C638.868 152.083 639.145 151.4 639.701 150.868C640.256 150.312 640.928 150.035 641.715 150.035C642.548 150.035 643.231 150.312 643.763 150.868C644.319 151.424 644.597 152.106 644.597 152.917C644.597 153.704 644.319 154.375 643.763 154.931C643.208 155.486 642.525 155.764 641.715 155.764ZM659.672 180.556C657.635 180.556 655.771 180.069 654.081 179.097C652.392 178.102 651.049 176.771 650.054 175.104C649.058 173.437 648.56 171.597 648.56 169.583C648.56 167.546 649.058 165.706 650.054 164.063C651.049 162.396 652.392 161.076 654.081 160.104C655.771 159.109 657.635 158.611 659.672 158.611C661.732 158.611 663.595 159.109 665.262 160.104C666.952 161.076 668.294 162.396 669.29 164.063C670.285 165.706 670.783 167.546 670.783 169.583C670.783 171.597 670.285 173.437 669.29 175.104C668.294 176.771 666.952 178.102 665.262 179.097C663.595 180.069 661.732 180.556 659.672 180.556ZM659.672 176.076C660.875 176.076 661.952 175.787 662.901 175.208C663.873 174.606 664.648 173.819 665.227 172.847C665.806 171.875 666.095 170.787 666.095 169.583C666.095 168.38 665.806 167.292 665.227 166.319C664.648 165.347 663.873 164.572 662.901 163.993C661.929 163.391 660.852 163.09 659.672 163.09C658.491 163.09 657.415 163.391 656.442 163.993C655.47 164.572 654.695 165.347 654.116 166.319C653.56 167.292 653.283 168.38 653.283 169.583C653.283 170.787 653.56 171.875 654.116 172.847C654.695 173.819 655.459 174.606 656.408 175.208C657.38 175.787 658.468 176.076 659.672 176.076Z" fill="black"/>
<path d="M188.132 168.287V160.607L181.506 156.767L174.883 160.607V168.287L181.506 172.127L188.132 168.287Z" fill="#72BF44"/>
<path d="M161.144 153.138V175.906L168.447 171.674V157.37L161.144 153.138Z" fill="#9DA6AB"/>
<path d="M202.16 175.919L202.038 153.007L194.836 157.418V171.596L202.16 175.919Z" fill="#9DA6AB"/>
<path d="M181.223 141L161.578 152.382L168.88 156.613L181.223 149.463V141Z" fill="#A6CE39"/>
<path d="M181.223 179.58L168.88 172.43L161.578 176.661L181.223 188.047V179.58Z" fill="#727D84"/>
<path d="M194.283 172.521L182.093 179.582V188.048L201.56 176.808L194.283 172.521Z" fill="#48535B"/>
<path d="M201.061 152.027L182.093 141V149.463L194.347 156.683L197.643 154.355L201.061 152.027Z" fill="#72BF44"/>
<path d="M128.626 152.201V148.588L125.373 146.781L122.123 148.588V152.201L125.373 154.007L128.626 152.201Z" fill="#72BF44"/>
<path d="M127.904 151.839V148.949L125.374 147.504L122.845 148.949V151.839L125.374 153.285L127.904 151.839Z" fill="#72BF44"/>
<path d="M241.328 150.642L241.353 160.707L224.778 150.936V141.025L241.328 150.642Z" fill="#73BF44"/>
<path d="M224.716 150.936L216.924 155.476L208.205 150.629L224.78 141L224.716 150.936Z" fill="#A5CD39"/>
<path d="M208.205 150.629L241.354 169.044V178.38L208.217 160.105L208.205 150.629Z" fill="#9DA5AB"/>
<path d="M241.354 178.38L232.407 173.443L224.728 178.137L224.779 188.048L241.354 178.38Z" fill="#737D84"/>
<path d="M224.729 178.137L224.779 188.048L208.205 178.444L208.179 168.648L224.729 178.137Z" fill="#49545C"/>
<path d="M32.4919 150.626L32.5168 160.674L16.2703 150.92V141.025L32.4919 150.626Z" fill="#73BF44"/>
<path d="M16.2091 150.92L8.571 155.452L0.0247803 150.613L16.2713 141L16.2091 150.92Z" fill="#A5CD39"/>
<path d="M0.0246582 150.613L32.5177 168.998V178.318L0.0370723 160.074L0.0246582 150.613Z" fill="#9DA5AB"/>
<path d="M32.5178 178.318L23.7477 173.389L16.2216 178.075L16.2713 187.97L32.5178 178.318Z" fill="#737D84"/>
<path d="M16.2217 178.076L16.2714 187.97L0.0249041 178.382L0 168.602L16.2217 178.076Z" fill="#49545C"/>
<path d="M45.6092 179.79C43.7256 179.79 42.1204 179.413 40.7937 178.66C39.4669 177.89 38.4514 176.727 37.7471 175.171C37.0592 173.615 36.7152 171.633 36.7152 169.225V155.221H41.1376V167.997C41.1376 170.552 41.5717 172.501 42.4398 173.844C43.3243 175.188 44.7575 175.859 46.7394 175.859C48.0989 175.859 49.3601 175.531 50.523 174.876C51.686 174.221 52.4885 173.173 52.9308 171.731L52.292 174.139V155.221H56.7144V179.299H52.7834L51.8989 174.581L53.0782 175.368C52.2756 176.858 51.2928 177.972 50.1299 178.709C48.9834 179.43 47.4765 179.79 45.6092 179.79Z" fill="#231F20"/>
<path d="M69.5598 179.79C67.4305 179.79 65.6615 179.536 64.2529 179.028C62.8606 178.521 61.8779 178.07 61.3046 177.677L61.8451 173.402C62.3693 173.861 63.2947 174.385 64.6214 174.975C65.9482 175.564 67.5288 175.859 69.3633 175.859C70.9193 175.859 72.1068 175.597 72.9258 175.073C73.7611 174.549 74.1788 173.812 74.1788 172.862C74.1788 172.026 73.9085 171.355 73.368 170.847C72.8439 170.323 72.2051 169.913 71.4516 169.619C70.7146 169.307 70.0184 169.062 69.3633 168.881C68.2658 168.587 67.1275 168.218 65.9482 167.776C64.7852 167.317 63.8025 166.637 62.9999 165.737C62.1973 164.836 61.796 163.575 61.796 161.953C61.796 160.725 62.0908 159.562 62.6805 158.464C63.2701 157.35 64.2283 156.45 65.5551 155.762C66.8818 155.074 68.6426 154.73 70.8374 154.73C72.4426 154.73 73.7447 154.902 74.7439 155.246C75.7594 155.573 76.6357 155.925 77.3728 156.302L76.8322 160.331C76.1279 159.742 75.309 159.242 74.3753 158.833C73.4417 158.423 72.2952 158.219 70.9357 158.219C69.5598 158.219 68.4378 158.481 67.5697 159.005C66.7016 159.512 66.2676 160.331 66.2676 161.462C66.2676 162.592 66.7262 163.394 67.6434 163.869C68.577 164.344 69.9857 164.869 71.8693 165.442C72.459 165.606 73.1387 165.843 73.9085 166.154C74.6947 166.466 75.4564 166.883 76.1934 167.407C76.9305 167.931 77.5366 168.619 78.0116 169.471C78.5029 170.306 78.7486 171.355 78.7486 172.616C78.7486 173.681 78.4948 174.77 77.987 175.884C77.4792 176.981 76.562 177.907 75.2353 178.66C73.9085 179.413 72.0167 179.79 69.5598 179.79Z" fill="#231F20"/>
<path d="M91.3802 179.79C89.8569 179.79 88.6366 179.512 87.7194 178.955C86.8022 178.398 86.1306 177.685 85.7047 176.817C85.2953 175.933 85.0905 175.007 85.0905 174.041V158.661H80.9629L81.356 155.221H85.0905V149.275L89.5129 148.833V155.221H95.8518V158.661H89.5129V171.338C89.5129 172.878 89.603 173.992 89.7832 174.68C89.9634 175.368 90.4056 175.802 91.1099 175.982C91.8306 176.162 92.9854 176.252 94.5742 176.252H95.7043L95.3604 179.79H91.3802Z" fill="#231F20"/>
<path d="M105.233 179.79C103.742 179.79 102.44 179.487 101.326 178.881C100.213 178.275 99.3445 177.448 98.7221 176.4C98.1161 175.351 97.8131 174.156 97.8131 172.813C97.8131 171.453 98.1079 170.29 98.6975 169.324C99.3036 168.341 100.106 167.53 101.105 166.891C102.121 166.236 103.251 165.72 104.496 165.344C105.741 164.95 107.026 164.672 108.353 164.508C109.696 164.328 110.982 164.23 112.211 164.213C112.211 161.92 111.76 160.422 110.859 159.717C109.958 159.013 108.656 158.661 106.953 158.661C106.052 158.661 105.085 158.8 104.054 159.078C103.038 159.357 101.892 159.938 100.614 160.823L99.9751 157.236C100.942 156.499 102.145 155.901 103.587 155.442C105.028 154.967 106.543 154.73 108.132 154.73C110.163 154.73 111.801 155.09 113.046 155.811C114.291 156.515 115.2 157.711 115.773 159.398C116.346 161.085 116.633 163.378 116.633 166.277V171.191C116.633 172.338 116.682 173.288 116.78 174.041C116.895 174.778 117.141 175.335 117.517 175.712C117.911 176.072 118.533 176.252 119.385 176.252H119.827L119.139 179.79H118.795C117.37 179.79 116.264 179.651 115.478 179.372C114.708 179.094 114.119 178.693 113.709 178.169C113.3 177.644 112.931 177.006 112.604 176.252C111.703 177.3 110.638 178.152 109.41 178.807C108.181 179.463 106.789 179.79 105.233 179.79ZM106.068 176.252C107.248 176.252 108.386 175.957 109.483 175.368C110.597 174.778 111.506 173.992 112.211 173.009V167.26C109.868 167.342 107.968 167.571 106.51 167.948C105.069 168.325 104.013 168.89 103.341 169.643C102.67 170.397 102.334 171.371 102.334 172.567C102.334 173.861 102.678 174.803 103.366 175.392C104.07 175.966 104.971 176.252 106.068 176.252Z" fill="#231F20"/>
<path d="M123.24 179.299V155.221H127.663V179.299H123.24Z" fill="#231F20"/>
<path d="M133.654 179.299V155.221H137.978V159.84L136.258 159.103C137.879 157.301 139.46 156.122 141 155.565C142.556 155.008 144.071 154.73 145.545 154.73C149.067 154.73 151.581 155.745 153.088 157.776C154.611 159.807 155.373 162.559 155.373 166.031V179.299H150.95V166.031C150.95 163.476 150.475 161.609 149.525 160.43C148.575 159.25 146.954 158.661 144.66 158.661C143.039 158.661 141.548 159.021 140.189 159.742C138.846 160.446 137.961 161.576 137.535 163.132L138.076 160.43V179.299H133.654Z" fill="#231F20"/>
<path d="M194 107.653V7.99573H214.283L258.065 77.0343V7.99573H275.91V107.653H256.603L211.845 39.2971L211.942 107.653H194Z" fill="#48535B"/>
<path d="M458.549 7.99573L433.293 82.1049H432.903L407.258 7.99573H384.83L422.079 107.653H443.727L473.761 21.94L478.831 7.99573H458.549Z" fill="#48535B"/>
<path d="M353.139 67.0884V48.1711L336.854 38.7124L320.472 48.1711V67.0884L336.854 76.4496L353.139 67.0884Z" fill="#72BF44"/>
<path d="M286.636 29.8376V85.8096L304.675 75.3758V40.2714L286.636 29.8376Z" fill="#9DA6AB"/>
<path d="M336.172 0L287.708 27.9859L305.748 38.4197L336.172 20.7701V0Z" fill="#A6CE39"/>
<path d="M336.172 94.782L305.748 77.2299L287.708 87.6637L336.172 115.552V94.782Z" fill="#727D84"/>
<path d="M368.349 77.4244L338.316 94.7816V115.552L386.292 87.9557L376.735 62.3101L368.349 77.4244Z" fill="#48535B"/>
<path d="M383.756 26.2307L338.316 0V20.7701L367.667 37.7371L383.756 26.2307Z" fill="#72BF44"/>
</svg>
